# xmcd
#
# Track frame offsets:
#	150
#	1131
#	29734
#	59847
#	84803
#	111122
#	131845
#	159333
#	192366
#	210510
#	229659
#	237058
#	256691
#	273638
#	300513
#
# Disc length: 4309 seconds
# Revision: 0
# Processed by: cddbd v1.5.2PL0 Copyright (c) Steve Scherf et al.
# Submitted via: dBpowerAMP V12.0
#
DISCID=c110d30f
DTITLE=Anna Maria Jokl - Die Perlmutterfarbe CD1
DYEAR=1900
DGENRE=
TTITLE0=A und B
TTITLE1=A und B
TTITLE2=Die Perlmutterfarbe
TTITLE3=Die Vernichtung
TTITLE4=Beinahe eine Geständnis
TTITLE5=Es ist noch immer Zeit
TTITLE6=Die Entscheidung
TTITLE7=Von Größten zum Kleinsten
TTITLE8=Der lange Gruber wählt seine Partei
TTITLE9=Mausi verrät Lotte
TTITLE10=Was wird der B-Karli unternehmen?
TTITLE11=Der Verdacht wird gelenkt
TTITLE12=Heihei als Geheimdetektiv
TTITLE13=Verschiedene Meinungen
TTITLE14=Verschiedene Meinungen
EXTD=
EXTT0=
EXTT1=
EXTT2=
EXTT3=
EXTT4=
EXTT5=
EXTT6=
EXTT7=
EXTT8=
EXTT9=
EXTT10=
EXTT11=
EXTT12=
EXTT13=
EXTT14=
PLAYORDER=
